<?xml version="1.0" encoding="utf-8" standalone="no"?>
<!DOCTYPE svg PUBLIC "-//W3C//DTD SVG 1.1//EN"
  "http://www.w3.org/Graphics/SVG/1.1/DTD/svg11.dtd">
<!-- Created with matplotlib (https://matplotlib.org/) -->
<svg height="1080pt" version="1.1" viewBox="0 0 1080 1080" width="1080pt" xmlns="http://www.w3.org/2000/svg" xmlns:xlink="http://www.w3.org/1999/xlink">
 <defs>
  <style type="text/css">
*{stroke-linecap:butt;stroke-linejoin:round;}
  </style>
 </defs>
 <g id="figure_1">
  <g id="patch_1">
   <path d="M 0 1080 
L 1080 1080 
L 1080 0 
L 0 0 
z
" style="fill:#ffffff;"/>
  </g>
  <g id="axes_1">
   <g id="patch_2">
    <path d="M 135 500.236364 
L 515.454545 500.236364 
L 515.454545 129.6 
L 135 129.6 
z
" style="fill:#eaeaf2;"/>
   </g>
   <g id="matplotlib.axis_1">
    <g id="xtick_1">
     <g id="line2d_1">
      <path clip-path="url(#pb27b7a2703)" d="M 190.72314 500.236364 
L 190.72314 129.6 
" style="fill:none;stroke:#ffffff;stroke-linecap:round;"/>
     </g>
     <g id="text_1">
      <!-- 0.1 -->
      <defs>
       <path d="M 31.78125 66.40625 
Q 24.171875 66.40625 20.328125 58.90625 
Q 16.5 51.421875 16.5 36.375 
Q 16.5 21.390625 20.328125 13.890625 
Q 24.171875 6.390625 31.78125 6.390625 
Q 39.453125 6.390625 43.28125 13.890625 
Q 47.125 21.390625 47.125 36.375 
Q 47.125 51.421875 43.28125 58.90625 
Q 39.453125 66.40625 31.78125 66.40625 
z
M 31.78125 74.21875 
Q 44.046875 74.21875 50.515625 64.515625 
Q 56.984375 54.828125 56.984375 36.375 
Q 56.984375 17.96875 50.515625 8.265625 
Q 44.046875 -1.421875 31.78125 -1.421875 
Q 19.53125 -1.421875 13.0625 8.265625 
Q 6.59375 17.96875 6.59375 36.375 
Q 6.59375 54.828125 13.0625 64.515625 
Q 19.53125 74.21875 31.78125 74.21875 
z
" id="DejaVuSans-48"/>
       <path d="M 10.6875 12.40625 
L 21 12.40625 
L 21 0 
L 10.6875 0 
z
" id="DejaVuSans-46"/>
       <path d="M 12.40625 8.296875 
L 28.515625 8.296875 
L 28.515625 63.921875 
L 10.984375 60.40625 
L 10.984375 69.390625 
L 28.421875 72.90625 
L 38.28125 72.90625 
L 38.28125 8.296875 
L 54.390625 8.296875 
L 54.390625 0 
L 12.40625 0 
z
" id="DejaVuSans-49"/>
      </defs>
      <g style="fill:#262626;" transform="translate(181.976422 518.094645)scale(0.11 -0.11)">
       <use xlink:href="#DejaVuSans-48"/>
       <use x="63.623047" xlink:href="#DejaVuSans-46"/>
       <use x="95.410156" xlink:href="#DejaVuSans-49"/>
      </g>
     </g>
    </g>
    <g id="xtick_2">
     <g id="line2d_2">
      <path clip-path="url(#pb27b7a2703)" d="M 267.582645 500.236364 
L 267.582645 129.6 
" style="fill:none;stroke:#ffffff;stroke-linecap:round;"/>
     </g>
     <g id="text_2">
      <!-- 0.2 -->
      <defs>
       <path d="M 19.1875 8.296875 
L 53.609375 8.296875 
L 53.609375 0 
L 7.328125 0 
L 7.328125 8.296875 
Q 12.9375 14.109375 22.625 23.890625 
Q 32.328125 33.6875 34.8125 36.53125 
Q 39.546875 41.84375 41.421875 45.53125 
Q 43.3125 49.21875 43.3125 52.78125 
Q 43.3125 58.59375 39.234375 62.25 
Q 35.15625 65.921875 28.609375 65.921875 
Q 23.96875 65.921875 18.8125 64.3125 
Q 13.671875 62.703125 7.8125 59.421875 
L 7.8125 69.390625 
Q 13.765625 71.78125 18.9375 73 
Q 24.125 74.21875 28.421875 74.21875 
Q 39.75 74.21875 46.484375 68.546875 
Q 53.21875 62.890625 53.21875 53.421875 
Q 53.21875 48.921875 51.53125 44.890625 
Q 49.859375 40.875 45.40625 35.40625 
Q 44.1875 33.984375 37.640625 27.21875 
Q 31.109375 20.453125 19.1875 8.296875 
z
" id="DejaVuSans-50"/>
      </defs>
      <g style="fill:#262626;" transform="translate(258.835926 518.094645)scale(0.11 -0.11)">
       <use xlink:href="#DejaVuSans-48"/>
       <use x="63.623047" xlink:href="#DejaVuSans-46"/>
       <use x="95.410156" xlink:href="#DejaVuSans-50"/>
      </g>
     </g>
    </g>
    <g id="xtick_3">
     <g id="line2d_3">
      <path clip-path="url(#pb27b7a2703)" d="M 344.442149 500.236364 
L 344.442149 129.6 
" style="fill:none;stroke:#ffffff;stroke-linecap:round;"/>
     </g>
     <g id="text_3">
      <!-- 0.3 -->
      <defs>
       <path d="M 40.578125 39.3125 
Q 47.65625 37.796875 51.625 33 
Q 55.609375 28.21875 55.609375 21.1875 
Q 55.609375 10.40625 48.1875 4.484375 
Q 40.765625 -1.421875 27.09375 -1.421875 
Q 22.515625 -1.421875 17.65625 -0.515625 
Q 12.796875 0.390625 7.625 2.203125 
L 7.625 11.71875 
Q 11.71875 9.328125 16.59375 8.109375 
Q 21.484375 6.890625 26.8125 6.890625 
Q 36.078125 6.890625 40.9375 10.546875 
Q 45.796875 14.203125 45.796875 21.1875 
Q 45.796875 27.640625 41.28125 31.265625 
Q 36.765625 34.90625 28.71875 34.90625 
L 20.21875 34.90625 
L 20.21875 43.015625 
L 29.109375 43.015625 
Q 36.375 43.015625 40.234375 45.921875 
Q 44.09375 48.828125 44.09375 54.296875 
Q 44.09375 59.90625 40.109375 62.90625 
Q 36.140625 65.921875 28.71875 65.921875 
Q 24.65625 65.921875 20.015625 65.03125 
Q 15.375 64.15625 9.8125 62.3125 
L 9.8125 71.09375 
Q 15.4375 72.65625 20.34375 73.4375 
Q 25.25 74.21875 29.59375 74.21875 
Q 40.828125 74.21875 47.359375 69.109375 
Q 53.90625 64.015625 53.90625 55.328125 
Q 53.90625 49.265625 50.4375 45.09375 
Q 46.96875 40.921875 40.578125 39.3125 
z
" id="DejaVuSans-51"/>
      </defs>
      <g style="fill:#262626;" transform="translate(335.69543 518.094645)scale(0.11 -0.11)">
       <use xlink:href="#DejaVuSans-48"/>
       <use x="63.623047" xlink:href="#DejaVuSans-46"/>
       <use x="95.410156" xlink:href="#DejaVuSans-51"/>
      </g>
     </g>
    </g>
    <g id="xtick_4">
     <g id="line2d_4">
      <path clip-path="url(#pb27b7a2703)" d="M 421.301653 500.236364 
L 421.301653 129.6 
" style="fill:none;stroke:#ffffff;stroke-linecap:round;"/>
     </g>
     <g id="text_4">
      <!-- 0.4 -->
      <defs>
       <path d="M 37.796875 64.3125 
L 12.890625 25.390625 
L 37.796875 25.390625 
z
M 35.203125 72.90625 
L 47.609375 72.90625 
L 47.609375 25.390625 
L 58.015625 25.390625 
L 58.015625 17.1875 
L 47.609375 17.1875 
L 47.609375 0 
L 37.796875 0 
L 37.796875 17.1875 
L 4.890625 17.1875 
L 4.890625 26.703125 
z
" id="DejaVuSans-52"/>
      </defs>
      <g style="fill:#262626;" transform="translate(412.554934 518.094645)scale(0.11 -0.11)">
       <use xlink:href="#DejaVuSans-48"/>
       <use x="63.623047" xlink:href="#DejaVuSans-46"/>
       <use x="95.410156" xlink:href="#DejaVuSans-52"/>
      </g>
     </g>
    </g>
    <g id="xtick_5">
     <g id="line2d_5">
      <path clip-path="url(#pb27b7a2703)" d="M 498.161157 500.236364 
L 498.161157 129.6 
" style="fill:none;stroke:#ffffff;stroke-linecap:round;"/>
     </g>
     <g id="text_5">
      <!-- 0.5 -->
      <defs>
       <path d="M 10.796875 72.90625 
L 49.515625 72.90625 
L 49.515625 64.59375 
L 19.828125 64.59375 
L 19.828125 46.734375 
Q 21.96875 47.46875 24.109375 47.828125 
Q 26.265625 48.1875 28.421875 48.1875 
Q 40.625 48.1875 47.75 41.5 
Q 54.890625 34.8125 54.890625 23.390625 
Q 54.890625 11.625 47.5625 5.09375 
Q 40.234375 -1.421875 26.90625 -1.421875 
Q 22.3125 -1.421875 17.546875 -0.640625 
Q 12.796875 0.140625 7.71875 1.703125 
L 7.71875 11.625 
Q 12.109375 9.234375 16.796875 8.0625 
Q 21.484375 6.890625 26.703125 6.890625 
Q 35.15625 6.890625 40.078125 11.328125 
Q 45.015625 15.765625 45.015625 23.390625 
Q 45.015625 31 40.078125 35.4375 
Q 35.15625 39.890625 26.703125 39.890625 
Q 22.75 39.890625 18.8125 39.015625 
Q 14.890625 38.140625 10.796875 36.28125 
z
" id="DejaVuSans-53"/>
      </defs>
      <g style="fill:#262626;" transform="translate(489.414438 518.094645)scale(0.11 -0.11)">
       <use xlink:href="#DejaVuSans-48"/>
       <use x="63.623047" xlink:href="#DejaVuSans-46"/>
       <use x="95.410156" xlink:href="#DejaVuSans-53"/>
      </g>
     </g>
    </g>
    <g id="text_6">
     <!-- percentage of false labels -->
     <defs>
      <path d="M 18.109375 8.203125 
L 18.109375 -20.796875 
L 9.078125 -20.796875 
L 9.078125 54.6875 
L 18.109375 54.6875 
L 18.109375 46.390625 
Q 20.953125 51.265625 25.265625 53.625 
Q 29.59375 56 35.59375 56 
Q 45.5625 56 51.78125 48.09375 
Q 58.015625 40.1875 58.015625 27.296875 
Q 58.015625 14.40625 51.78125 6.484375 
Q 45.5625 -1.421875 35.59375 -1.421875 
Q 29.59375 -1.421875 25.265625 0.953125 
Q 20.953125 3.328125 18.109375 8.203125 
z
M 48.6875 27.296875 
Q 48.6875 37.203125 44.609375 42.84375 
Q 40.53125 48.484375 33.40625 48.484375 
Q 26.265625 48.484375 22.1875 42.84375 
Q 18.109375 37.203125 18.109375 27.296875 
Q 18.109375 17.390625 22.1875 11.75 
Q 26.265625 6.109375 33.40625 6.109375 
Q 40.53125 6.109375 44.609375 11.75 
Q 48.6875 17.390625 48.6875 27.296875 
z
" id="DejaVuSans-112"/>
      <path d="M 56.203125 29.59375 
L 56.203125 25.203125 
L 14.890625 25.203125 
Q 15.484375 15.921875 20.484375 11.0625 
Q 25.484375 6.203125 34.421875 6.203125 
Q 39.59375 6.203125 44.453125 7.46875 
Q 49.3125 8.734375 54.109375 11.28125 
L 54.109375 2.78125 
Q 49.265625 0.734375 44.1875 -0.34375 
Q 39.109375 -1.421875 33.890625 -1.421875 
Q 20.796875 -1.421875 13.15625 6.1875 
Q 5.515625 13.8125 5.515625 26.8125 
Q 5.515625 40.234375 12.765625 48.109375 
Q 20.015625 56 32.328125 56 
Q 43.359375 56 49.78125 48.890625 
Q 56.203125 41.796875 56.203125 29.59375 
z
M 47.21875 32.234375 
Q 47.125 39.59375 43.09375 43.984375 
Q 39.0625 48.390625 32.421875 48.390625 
Q 24.90625 48.390625 20.390625 44.140625 
Q 15.875 39.890625 15.1875 32.171875 
z
" id="DejaVuSans-101"/>
      <path d="M 41.109375 46.296875 
Q 39.59375 47.171875 37.8125 47.578125 
Q 36.03125 48 33.890625 48 
Q 26.265625 48 22.1875 43.046875 
Q 18.109375 38.09375 18.109375 28.8125 
L 18.109375 0 
L 9.078125 0 
L 9.078125 54.6875 
L 18.109375 54.6875 
L 18.109375 46.1875 
Q 20.953125 51.171875 25.484375 53.578125 
Q 30.03125 56 36.53125 56 
Q 37.453125 56 38.578125 55.875 
Q 39.703125 55.765625 41.0625 55.515625 
z
" id="DejaVuSans-114"/>
      <path d="M 48.78125 52.59375 
L 48.78125 44.1875 
Q 44.96875 46.296875 41.140625 47.34375 
Q 37.3125 48.390625 33.40625 48.390625 
Q 24.65625 48.390625 19.8125 42.84375 
Q 14.984375 37.3125 14.984375 27.296875 
Q 14.984375 17.28125 19.8125 11.734375 
Q 24.65625 6.203125 33.40625 6.203125 
Q 37.3125 6.203125 41.140625 7.25 
Q 44.96875 8.296875 48.78125 10.40625 
L 48.78125 2.09375 
Q 45.015625 0.34375 40.984375 -0.53125 
Q 36.96875 -1.421875 32.421875 -1.421875 
Q 20.0625 -1.421875 12.78125 6.34375 
Q 5.515625 14.109375 5.515625 27.296875 
Q 5.515625 40.671875 12.859375 48.328125 
Q 20.21875 56 33.015625 56 
Q 37.15625 56 41.109375 55.140625 
Q 45.0625 54.296875 48.78125 52.59375 
z
" id="DejaVuSans-99"/>
      <path d="M 54.890625 33.015625 
L 54.890625 0 
L 45.90625 0 
L 45.90625 32.71875 
Q 45.90625 40.484375 42.875 44.328125 
Q 39.84375 48.1875 33.796875 48.1875 
Q 26.515625 48.1875 22.3125 43.546875 
Q 18.109375 38.921875 18.109375 30.90625 
L 18.109375 0 
L 9.078125 0 
L 9.078125 54.6875 
L 18.109375 54.6875 
L 18.109375 46.1875 
Q 21.34375 51.125 25.703125 53.5625 
Q 30.078125 56 35.796875 56 
Q 45.21875 56 50.046875 50.171875 
Q 54.890625 44.34375 54.890625 33.015625 
z
" id="DejaVuSans-110"/>
      <path d="M 18.3125 70.21875 
L 18.3125 54.6875 
L 36.8125 54.6875 
L 36.8125 47.703125 
L 18.3125 47.703125 
L 18.3125 18.015625 
Q 18.3125 11.328125 20.140625 9.421875 
Q 21.96875 7.515625 27.59375 7.515625 
L 36.8125 7.515625 
L 36.8125 0 
L 27.59375 0 
Q 17.1875 0 13.234375 3.875 
Q 9.28125 7.765625 9.28125 18.015625 
L 9.28125 47.703125 
L 2.6875 47.703125 
L 2.6875 54.6875 
L 9.28125 54.6875 
L 9.28125 70.21875 
z
" id="DejaVuSans-116"/>
      <path d="M 34.28125 27.484375 
Q 23.390625 27.484375 19.1875 25 
Q 14.984375 22.515625 14.984375 16.5 
Q 14.984375 11.71875 18.140625 8.90625 
Q 21.296875 6.109375 26.703125 6.109375 
Q 34.1875 6.109375 38.703125 11.40625 
Q 43.21875 16.703125 43.21875 25.484375 
L 43.21875 27.484375 
z
M 52.203125 31.203125 
L 52.203125 0 
L 43.21875 0 
L 43.21875 8.296875 
Q 40.140625 3.328125 35.546875 0.953125 
Q 30.953125 -1.421875 24.3125 -1.421875 
Q 15.921875 -1.421875 10.953125 3.296875 
Q 6 8.015625 6 15.921875 
Q 6 25.140625 12.171875 29.828125 
Q 18.359375 34.515625 30.609375 34.515625 
L 43.21875 34.515625 
L 43.21875 35.40625 
Q 43.21875 41.609375 39.140625 45 
Q 35.0625 48.390625 27.6875 48.390625 
Q 23 48.390625 18.546875 47.265625 
Q 14.109375 46.140625 10.015625 43.890625 
L 10.015625 52.203125 
Q 14.9375 54.109375 19.578125 55.046875 
Q 24.21875 56 28.609375 56 
Q 40.484375 56 46.34375 49.84375 
Q 52.203125 43.703125 52.203125 31.203125 
z
" id="DejaVuSans-97"/>
      <path d="M 45.40625 27.984375 
Q 45.40625 37.75 41.375 43.109375 
Q 37.359375 48.484375 30.078125 48.484375 
Q 22.859375 48.484375 18.828125 43.109375 
Q 14.796875 37.75 14.796875 27.984375 
Q 14.796875 18.265625 18.828125 12.890625 
Q 22.859375 7.515625 30.078125 7.515625 
Q 37.359375 7.515625 41.375 12.890625 
Q 45.40625 18.265625 45.40625 27.984375 
z
M 54.390625 6.78125 
Q 54.390625 -7.171875 48.1875 -13.984375 
Q 42 -20.796875 29.203125 -20.796875 
Q 24.46875 -20.796875 20.265625 -20.09375 
Q 16.0625 -19.390625 12.109375 -17.921875 
L 12.109375 -9.1875 
Q 16.0625 -11.328125 19.921875 -12.34375 
Q 23.78125 -13.375 27.78125 -13.375 
Q 36.625 -13.375 41.015625 -8.765625 
Q 45.40625 -4.15625 45.40625 5.171875 
L 45.40625 9.625 
Q 42.625 4.78125 38.28125 2.390625 
Q 33.9375 0 27.875 0 
Q 17.828125 0 11.671875 7.65625 
Q 5.515625 15.328125 5.515625 27.984375 
Q 5.515625 40.671875 11.671875 48.328125 
Q 17.828125 56 27.875 56 
Q 33.9375 56 38.28125 53.609375 
Q 42.625 51.21875 45.40625 46.390625 
L 45.40625 54.6875 
L 54.390625 54.6875 
z
" id="DejaVuSans-103"/>
      <path id="DejaVuSans-32"/>
      <path d="M 30.609375 48.390625 
Q 23.390625 48.390625 19.1875 42.75 
Q 14.984375 37.109375 14.984375 27.296875 
Q 14.984375 17.484375 19.15625 11.84375 
Q 23.34375 6.203125 30.609375 6.203125 
Q 37.796875 6.203125 41.984375 11.859375 
Q 46.1875 17.53125 46.1875 27.296875 
Q 46.1875 37.015625 41.984375 42.703125 
Q 37.796875 48.390625 30.609375 48.390625 
z
M 30.609375 56 
Q 42.328125 56 49.015625 48.375 
Q 55.71875 40.765625 55.71875 27.296875 
Q 55.71875 13.875 49.015625 6.21875 
Q 42.328125 -1.421875 30.609375 -1.421875 
Q 18.84375 -1.421875 12.171875 6.21875 
Q 5.515625 13.875 5.515625 27.296875 
Q 5.515625 40.765625 12.171875 48.375 
Q 18.84375 56 30.609375 56 
z
" id="DejaVuSans-111"/>
      <path d="M 37.109375 75.984375 
L 37.109375 68.5 
L 28.515625 68.5 
Q 23.6875 68.5 21.796875 66.546875 
Q 19.921875 64.59375 19.921875 59.515625 
L 19.921875 54.6875 
L 34.71875 54.6875 
L 34.71875 47.703125 
L 19.921875 47.703125 
L 19.921875 0 
L 10.890625 0 
L 10.890625 47.703125 
L 2.296875 47.703125 
L 2.296875 54.6875 
L 10.890625 54.6875 
L 10.890625 58.5 
Q 10.890625 67.625 15.140625 71.796875 
Q 19.390625 75.984375 28.609375 75.984375 
z
" id="DejaVuSans-102"/>
      <path d="M 9.421875 75.984375 
L 18.40625 75.984375 
L 18.40625 0 
L 9.421875 0 
z
" id="DejaVuSans-108"/>
      <path d="M 44.28125 53.078125 
L 44.28125 44.578125 
Q 40.484375 46.53125 36.375 47.5 
Q 32.28125 48.484375 27.875 48.484375 
Q 21.1875 48.484375 17.84375 46.4375 
Q 14.5 44.390625 14.5 40.28125 
Q 14.5 37.15625 16.890625 35.375 
Q 19.28125 33.59375 26.515625 31.984375 
L 29.59375 31.296875 
Q 39.15625 29.25 43.1875 25.515625 
Q 47.21875 21.78125 47.21875 15.09375 
Q 47.21875 7.46875 41.1875 3.015625 
Q 35.15625 -1.421875 24.609375 -1.421875 
Q 20.21875 -1.421875 15.453125 -0.5625 
Q 10.6875 0.296875 5.421875 2 
L 5.421875 11.28125 
Q 10.40625 8.6875 15.234375 7.390625 
Q 20.0625 6.109375 24.8125 6.109375 
Q 31.15625 6.109375 34.5625 8.28125 
Q 37.984375 10.453125 37.984375 14.40625 
Q 37.984375 18.0625 35.515625 20.015625 
Q 33.0625 21.96875 24.703125 23.78125 
L 21.578125 24.515625 
Q 13.234375 26.265625 9.515625 29.90625 
Q 5.8125 33.546875 5.8125 39.890625 
Q 5.8125 47.609375 11.28125 51.796875 
Q 16.75 56 26.8125 56 
Q 31.78125 56 36.171875 55.265625 
Q 40.578125 54.546875 44.28125 53.078125 
z
" id="DejaVuSans-115"/>
      <path d="M 48.6875 27.296875 
Q 48.6875 37.203125 44.609375 42.84375 
Q 40.53125 48.484375 33.40625 48.484375 
Q 26.265625 48.484375 22.1875 42.84375 
Q 18.109375 37.203125 18.109375 27.296875 
Q 18.109375 17.390625 22.1875 11.75 
Q 26.265625 6.109375 33.40625 6.109375 
Q 40.53125 6.109375 44.609375 11.75 
Q 48.6875 17.390625 48.6875 27.296875 
z
M 18.109375 46.390625 
Q 20.953125 51.265625 25.265625 53.625 
Q 29.59375 56 35.59375 56 
Q 45.5625 56 51.78125 48.09375 
Q 58.015625 40.1875 58.015625 27.296875 
Q 58.015625 14.40625 51.78125 6.484375 
Q 45.5625 -1.421875 35.59375 -1.421875 
Q 29.59375 -1.421875 25.265625 0.953125 
Q 20.953125 3.328125 18.109375 8.203125 
L 18.109375 0 
L 9.078125 0 
L 9.078125 75.984375 
L 18.109375 75.984375 
z
" id="DejaVuSans-98"/>
     </defs>
     <g style="fill:#262626;" transform="translate(247.656648 533.500426)scale(0.12 -0.12)">
      <use xlink:href="#DejaVuSans-112"/>
      <use x="63.476562" xlink:href="#DejaVuSans-101"/>
      <use x="125" xlink:href="#DejaVuSans-114"/>
      <use x="163.863281" xlink:href="#DejaVuSans-99"/>
      <use x="218.84375" xlink:href="#DejaVuSans-101"/>
      <use x="280.367188" xlink:href="#DejaVuSans-110"/>
      <use x="343.746094" xlink:href="#DejaVuSans-116"/>
      <use x="382.955078" xlink:href="#DejaVuSans-97"/>
      <use x="444.234375" xlink:href="#DejaVuSans-103"/>
      <use x="507.710938" xlink:href="#DejaVuSans-101"/>
      <use x="569.234375" xlink:href="#DejaVuSans-32"/>
      <use x="601.021484" xlink:href="#DejaVuSans-111"/>
      <use x="662.203125" xlink:href="#DejaVuSans-102"/>
      <use x="697.408203" xlink:href="#DejaVuSans-32"/>
      <use x="729.195312" xlink:href="#DejaVuSans-102"/>
      <use x="764.400391" xlink:href="#DejaVuSans-97"/>
      <use x="825.679688" xlink:href="#DejaVuSans-108"/>
      <use x="853.462891" xlink:href="#DejaVuSans-115"/>
      <use x="905.5625" xlink:href="#DejaVuSans-101"/>
      <use x="967.085938" xlink:href="#DejaVuSans-32"/>
      <use x="998.873047" xlink:href="#DejaVuSans-108"/>
      <use x="1026.65625" xlink:href="#DejaVuSans-97"/>
      <use x="1087.935547" xlink:href="#DejaVuSans-98"/>
      <use x="1151.412109" xlink:href="#DejaVuSans-101"/>
      <use x="1212.935547" xlink:href="#DejaVuSans-108"/>
      <use x="1240.71875" xlink:href="#DejaVuSans-115"/>
     </g>
    </g>
   </g>
   <g id="matplotlib.axis_2">
    <g id="ytick_1">
     <g id="line2d_6">
      <path clip-path="url(#pb27b7a2703)" d="M 135 463.682707 
L 515.454545 463.682707 
" style="fill:none;stroke:#ffffff;stroke-linecap:round;"/>
     </g>
     <g id="text_7">
      <!-- 0.0 -->
      <g style="fill:#262626;" transform="translate(108.006563 467.861847)scale(0.11 -0.11)">
       <use xlink:href="#DejaVuSans-48"/>
       <use x="63.623047" xlink:href="#DejaVuSans-46"/>
       <use x="95.410156" xlink:href="#DejaVuSans-48"/>
      </g>
     </g>
    </g>
    <g id="ytick_2">
     <g id="line2d_7">
      <path clip-path="url(#pb27b7a2703)" d="M 135 400.235587 
L 515.454545 400.235587 
" style="fill:none;stroke:#ffffff;stroke-linecap:round;"/>
     </g>
     <g id="text_8">
      <!-- 0.2 -->
      <g style="fill:#262626;" transform="translate(108.006563 404.414728)scale(0.11 -0.11)">
       <use xlink:href="#DejaVuSans-48"/>
       <use x="63.623047" xlink:href="#DejaVuSans-46"/>
       <use x="95.410156" xlink:href="#DejaVuSans-50"/>
      </g>
     </g>
    </g>
    <g id="ytick_3">
     <g id="line2d_8">
      <path clip-path="url(#pb27b7a2703)" d="M 135 336.788467 
L 515.454545 336.788467 
" style="fill:none;stroke:#ffffff;stroke-linecap:round;"/>
     </g>
     <g id="text_9">
      <!-- 0.4 -->
      <g style="fill:#262626;" transform="translate(108.006563 340.967608)scale(0.11 -0.11)">
       <use xlink:href="#DejaVuSans-48"/>
       <use x="63.623047" xlink:href="#DejaVuSans-46"/>
       <use x="95.410156" xlink:href="#DejaVuSans-52"/>
      </g>
     </g>
    </g>
    <g id="ytick_4">
     <g id="line2d_9">
      <path clip-path="url(#pb27b7a2703)" d="M 135 273.341347 
L 515.454545 273.341347 
" style="fill:none;stroke:#ffffff;stroke-linecap:round;"/>
     </g>
     <g id="text_10">
      <!-- 0.6 -->
      <defs>
       <path d="M 33.015625 40.375 
Q 26.375 40.375 22.484375 35.828125 
Q 18.609375 31.296875 18.609375 23.390625 
Q 18.609375 15.53125 22.484375 10.953125 
Q 26.375 6.390625 33.015625 6.390625 
Q 39.65625 6.390625 43.53125 10.953125 
Q 47.40625 15.53125 47.40625 23.390625 
Q 47.40625 31.296875 43.53125 35.828125 
Q 39.65625 40.375 33.015625 40.375 
z
M 52.59375 71.296875 
L 52.59375 62.3125 
Q 48.875 64.0625 45.09375 64.984375 
Q 41.3125 65.921875 37.59375 65.921875 
Q 27.828125 65.921875 22.671875 59.328125 
Q 17.53125 52.734375 16.796875 39.40625 
Q 19.671875 43.65625 24.015625 45.921875 
Q 28.375 48.1875 33.59375 48.1875 
Q 44.578125 48.1875 50.953125 41.515625 
Q 57.328125 34.859375 57.328125 23.390625 
Q 57.328125 12.15625 50.6875 5.359375 
Q 44.046875 -1.421875 33.015625 -1.421875 
Q 20.359375 -1.421875 13.671875 8.265625 
Q 6.984375 17.96875 6.984375 36.375 
Q 6.984375 53.65625 15.1875 63.9375 
Q 23.390625 74.21875 37.203125 74.21875 
Q 40.921875 74.21875 44.703125 73.484375 
Q 48.484375 72.75 52.59375 71.296875 
z
" id="DejaVuSans-54"/>
      </defs>
      <g style="fill:#262626;" transform="translate(108.006563 277.520488)scale(0.11 -0.11)">
       <use xlink:href="#DejaVuSans-48"/>
       <use x="63.623047" xlink:href="#DejaVuSans-46"/>
       <use x="95.410156" xlink:href="#DejaVuSans-54"/>
      </g>
     </g>
    </g>
    <g id="ytick_5">
     <g id="line2d_10">
      <path clip-path="url(#pb27b7a2703)" d="M 135 209.894227 
L 515.454545 209.894227 
" style="fill:none;stroke:#ffffff;stroke-linecap:round;"/>
     </g>
     <g id="text_11">
      <!-- 0.8 -->
      <defs>
       <path d="M 31.78125 34.625 
Q 24.75 34.625 20.71875 30.859375 
Q 16.703125 27.09375 16.703125 20.515625 
Q 16.703125 13.921875 20.71875 10.15625 
Q 24.75 6.390625 31.78125 6.390625 
Q 38.8125 6.390625 42.859375 10.171875 
Q 46.921875 13.96875 46.921875 20.515625 
Q 46.921875 27.09375 42.890625 30.859375 
Q 38.875 34.625 31.78125 34.625 
z
M 21.921875 38.8125 
Q 15.578125 40.375 12.03125 44.71875 
Q 8.5 49.078125 8.5 55.328125 
Q 8.5 64.0625 14.71875 69.140625 
Q 20.953125 74.21875 31.78125 74.21875 
Q 42.671875 74.21875 48.875 69.140625 
Q 55.078125 64.0625 55.078125 55.328125 
Q 55.078125 49.078125 51.53125 44.71875 
Q 48 40.375 41.703125 38.8125 
Q 48.828125 37.15625 52.796875 32.3125 
Q 56.78125 27.484375 56.78125 20.515625 
Q 56.78125 9.90625 50.3125 4.234375 
Q 43.84375 -1.421875 31.78125 -1.421875 
Q 19.734375 -1.421875 13.25 4.234375 
Q 6.78125 9.90625 6.78125 20.515625 
Q 6.78125 27.484375 10.78125 32.3125 
Q 14.796875 37.15625 21.921875 38.8125 
z
M 18.3125 54.390625 
Q 18.3125 48.734375 21.84375 45.5625 
Q 25.390625 42.390625 31.78125 42.390625 
Q 38.140625 42.390625 41.71875 45.5625 
Q 45.3125 48.734375 45.3125 54.390625 
Q 45.3125 60.0625 41.71875 63.234375 
Q 38.140625 66.40625 31.78125 66.40625 
Q 25.390625 66.40625 21.84375 63.234375 
Q 18.3125 60.0625 18.3125 54.390625 
z
" id="DejaVuSans-56"/>
      </defs>
      <g style="fill:#262626;" transform="translate(108.006563 214.073368)scale(0.11 -0.11)">
       <use xlink:href="#DejaVuSans-48"/>
       <use x="63.623047" xlink:href="#DejaVuSans-46"/>
       <use x="95.410156" xlink:href="#DejaVuSans-56"/>
      </g>
     </g>
    </g>
    <g id="ytick_6">
     <g id="line2d_11">
      <path clip-path="url(#pb27b7a2703)" d="M 135 146.447107 
L 515.454545 146.447107 
" style="fill:none;stroke:#ffffff;stroke-linecap:round;"/>
     </g>
     <g id="text_12">
      <!-- 1.0 -->
      <g style="fill:#262626;" transform="translate(108.006563 150.626248)scale(0.11 -0.11)">
       <use xlink:href="#DejaVuSans-49"/>
       <use x="63.623047" xlink:href="#DejaVuSans-46"/>
       <use x="95.410156" xlink:href="#DejaVuSans-48"/>
      </g>
     </g>
    </g>
    <g id="text_13">
     <!-- correction factor -->
     <defs>
      <path d="M 9.421875 54.6875 
L 18.40625 54.6875 
L 18.40625 0 
L 9.421875 0 
z
M 9.421875 75.984375 
L 18.40625 75.984375 
L 18.40625 64.59375 
L 9.421875 64.59375 
z
" id="DejaVuSans-105"/>
     </defs>
     <g style="fill:#262626;" transform="translate(101.510937 364.550369)rotate(-90)scale(0.12 -0.12)">
      <use xlink:href="#DejaVuSans-99"/>
      <use x="54.980469" xlink:href="#DejaVuSans-111"/>
      <use x="116.162109" xlink:href="#DejaVuSans-114"/>
      <use x="155.525391" xlink:href="#DejaVuSans-114"/>
      <use x="194.388672" xlink:href="#DejaVuSans-101"/>
      <use x="255.912109" xlink:href="#DejaVuSans-99"/>
      <use x="310.892578" xlink:href="#DejaVuSans-116"/>
      <use x="350.101562" xlink:href="#DejaVuSans-105"/>
      <use x="377.884766" xlink:href="#DejaVuSans-111"/>
      <use x="439.066406" xlink:href="#DejaVuSans-110"/>
      <use x="502.445312" xlink:href="#DejaVuSans-32"/>
      <use x="534.232422" xlink:href="#DejaVuSans-102"/>
      <use x="569.4375" xlink:href="#DejaVuSans-97"/>
      <use x="630.716797" xlink:href="#DejaVuSans-99"/>
      <use x="685.697266" xlink:href="#DejaVuSans-116"/>
      <use x="724.90625" xlink:href="#DejaVuSans-111"/>
      <use x="786.087891" xlink:href="#DejaVuSans-114"/>
     </g>
    </g>
   </g>
   <g id="PolyCollection_1">
    <defs>
     <path d="M 152.293388 -821.053215 
L 152.293388 -766.885243 
L 170.496955 -799.208341 
L 188.700522 -822.328999 
L 206.904089 -832.221405 
L 225.107656 -849.734745 
L 243.311222 -850.955886 
L 261.514789 -832.664993 
L 279.718356 -834.715122 
L 297.921923 -842.410251 
L 316.125489 -806.827206 
L 334.329056 -751.254177 
L 352.532623 -737.987305 
L 370.73619 -704.178015 
L 388.939756 -699.305261 
L 407.143323 -643.469337 
L 425.34689 -616.954062 
L 443.550457 -596.610744 
L 461.754023 -603.218599 
L 479.95759 -642.275569 
L 498.161157 -598.501362 
L 498.161157 -725.497077 
L 498.161157 -725.497077 
L 479.95759 -806.569976 
L 461.754023 -777.016612 
L 443.550457 -893.808582 
L 425.34689 -852.494839 
L 407.143323 -893.303029 
L 388.939756 -932.610759 
L 370.73619 -918.664685 
L 352.532623 -931.607954 
L 334.329056 -931.525113 
L 316.125489 -918.8338 
L 297.921923 -908.120166 
L 279.718356 -904.980593 
L 261.514789 -893.524449 
L 243.311222 -895.600371 
L 225.107656 -894.629702 
L 206.904089 -891.622622 
L 188.700522 -875.355828 
L 170.496955 -872.722018 
L 152.293388 -821.053215 
z
" id="mb7bb6da338" style="stroke:#ffffff;stroke-opacity:0.4;"/>
    </defs>
    <g clip-path="url(#pb27b7a2703)">
     <use style="fill:#4c72b0;fill-opacity:0.4;stroke:#ffffff;stroke-opacity:0.4;" x="0" xlink:href="#mb7bb6da338" y="1080"/>
    </g>
   </g>
   <g id="line2d_12">
    <path clip-path="url(#pb27b7a2703)" d="M 152.293388 286.030771 
L 170.496955 244.03482 
L 188.700522 231.157586 
L 206.904089 218.077986 
L 225.107656 207.817776 
L 243.311222 206.721871 
L 261.514789 216.905279 
L 279.718356 210.152142 
L 297.921923 204.734791 
L 316.125489 217.169497 
L 334.329056 238.610355 
L 352.532623 245.20237 
L 370.73619 268.57865 
L 388.939756 264.04199 
L 407.143323 311.613817 
L 425.34689 345.275549 
L 443.550457 334.790337 
L 461.754023 389.882394 
L 479.95759 355.577227 
L 498.161157 418.000781 
" style="fill:none;stroke:#4c72b0;stroke-linecap:round;stroke-width:1.5;"/>
   </g>
   <g id="line2d_13">
    <path clip-path="url(#pb27b7a2703)" d="M 152.293388 463.682707 
L 170.496955 463.682707 
L 188.700522 463.682707 
L 206.904089 463.682707 
L 225.107656 463.682707 
L 243.311222 463.682707 
L 261.514789 463.682707 
L 279.718356 463.682707 
L 297.921923 463.682707 
L 316.125489 463.682707 
L 334.329056 463.682707 
L 352.532623 463.682707 
L 370.73619 463.682707 
L 388.939756 463.682707 
L 407.143323 463.682707 
L 425.34689 463.682707 
L 443.550457 463.682707 
L 461.754023 463.682707 
L 479.95759 463.682707 
L 498.161157 463.682707 
" style="fill:none;stroke:#dd8452;stroke-linecap:round;stroke-width:1.5;"/>
   </g>
   <g id="line2d_14">
    <path clip-path="url(#pb27b7a2703)" d="M 152.293388 146.447107 
L 170.496955 146.447107 
L 188.700522 146.447107 
L 206.904089 146.447107 
L 225.107656 146.447107 
L 243.311222 146.447107 
L 261.514789 146.447107 
L 279.718356 146.447107 
L 297.921923 146.447107 
L 316.125489 146.447107 
L 334.329056 146.447107 
L 352.532623 146.447107 
L 370.73619 146.447107 
L 388.939756 146.447107 
L 407.143323 146.447107 
L 425.34689 146.447107 
L 443.550457 146.447107 
L 461.754023 146.447107 
L 479.95759 146.447107 
L 498.161157 146.447107 
" style="fill:none;stroke:#55a868;stroke-linecap:round;stroke-width:1.5;"/>
   </g>
   <g id="patch_3">
    <path d="M 135 500.236364 
L 135 129.6 
" style="fill:none;stroke:#ffffff;stroke-linecap:square;stroke-linejoin:miter;stroke-width:1.25;"/>
   </g>
   <g id="patch_4">
    <path d="M 515.454545 500.236364 
L 515.454545 129.6 
" style="fill:none;stroke:#ffffff;stroke-linecap:square;stroke-linejoin:miter;stroke-width:1.25;"/>
   </g>
   <g id="patch_5">
    <path d="M 135 500.236364 
L 515.454545 500.236364 
" style="fill:none;stroke:#ffffff;stroke-linecap:square;stroke-linejoin:miter;stroke-width:1.25;"/>
   </g>
   <g id="patch_6">
    <path d="M 135 129.6 
L 515.454545 129.6 
" style="fill:none;stroke:#ffffff;stroke-linecap:square;stroke-linejoin:miter;stroke-width:1.25;"/>
   </g>
   <g id="text_14">
    <!-- ADE -->
    <defs>
     <path d="M 34.1875 63.1875 
L 20.796875 26.90625 
L 47.609375 26.90625 
z
M 28.609375 72.90625 
L 39.796875 72.90625 
L 67.578125 0 
L 57.328125 0 
L 50.6875 18.703125 
L 17.828125 18.703125 
L 11.1875 0 
L 0.78125 0 
z
" id="DejaVuSans-65"/>
     <path d="M 19.671875 64.796875 
L 19.671875 8.109375 
L 31.59375 8.109375 
Q 46.6875 8.109375 53.6875 14.9375 
Q 60.6875 21.78125 60.6875 36.53125 
Q 60.6875 51.171875 53.6875 57.984375 
Q 46.6875 64.796875 31.59375 64.796875 
z
M 9.8125 72.90625 
L 30.078125 72.90625 
Q 51.265625 72.90625 61.171875 64.09375 
Q 71.09375 55.28125 71.09375 36.53125 
Q 71.09375 17.671875 61.125 8.828125 
Q 51.171875 0 30.078125 0 
L 9.8125 0 
z
" id="DejaVuSans-68"/>
     <path d="M 9.8125 72.90625 
L 55.90625 72.90625 
L 55.90625 64.59375 
L 19.671875 64.59375 
L 19.671875 43.015625 
L 54.390625 43.015625 
L 54.390625 34.71875 
L 19.671875 34.71875 
L 19.671875 8.296875 
L 56.78125 8.296875 
L 56.78125 0 
L 9.8125 0 
z
" id="DejaVuSans-69"/>
    </defs>
    <g style="fill:#262626;" transform="translate(309.582741 123.6)scale(0.15 -0.15)">
     <use xlink:href="#DejaVuSans-65"/>
     <use x="68.408203" xlink:href="#DejaVuSans-68"/>
     <use x="145.410156" xlink:href="#DejaVuSans-69"/>
    </g>
   </g>
  </g>
  <g id="axes_2">
   <g id="patch_7">
    <path d="M 591.545455 500.236364 
L 972 500.236364 
L 972 129.6 
L 591.545455 129.6 
z
" style="fill:#eaeaf2;"/>
   </g>
   <g id="matplotlib.axis_3">
    <g id="xtick_6">
     <g id="line2d_15">
      <path clip-path="url(#pe0e65c5b02)" d="M 647.268595 500.236364 
L 647.268595 129.6 
" style="fill:none;stroke:#ffffff;stroke-linecap:round;"/>
     </g>
     <g id="text_15">
      <!-- 0.1 -->
      <g style="fill:#262626;" transform="translate(638.521876 518.094645)scale(0.11 -0.11)">
       <use xlink:href="#DejaVuSans-48"/>
       <use x="63.623047" xlink:href="#DejaVuSans-46"/>
       <use x="95.410156" xlink:href="#DejaVuSans-49"/>
      </g>
     </g>
    </g>
    <g id="xtick_7">
     <g id="line2d_16">
      <path clip-path="url(#pe0e65c5b02)" d="M 724.128099 500.236364 
L 724.128099 129.6 
" style="fill:none;stroke:#ffffff;stroke-linecap:round;"/>
     </g>
     <g id="text_16">
      <!-- 0.2 -->
      <g style="fill:#262626;" transform="translate(715.38138 518.094645)scale(0.11 -0.11)">
       <use xlink:href="#DejaVuSans-48"/>
       <use x="63.623047" xlink:href="#DejaVuSans-46"/>
       <use x="95.410156" xlink:href="#DejaVuSans-50"/>
      </g>
     </g>
    </g>
    <g id="xtick_8">
     <g id="line2d_17">
      <path clip-path="url(#pe0e65c5b02)" d="M 800.987603 500.236364 
L 800.987603 129.6 
" style="fill:none;stroke:#ffffff;stroke-linecap:round;"/>
     </g>
     <g id="text_17">
      <!-- 0.3 -->
      <g style="fill:#262626;" transform="translate(792.240885 518.094645)scale(0.11 -0.11)">
       <use xlink:href="#DejaVuSans-48"/>
       <use x="63.623047" xlink:href="#DejaVuSans-46"/>
       <use x="95.410156" xlink:href="#DejaVuSans-51"/>
      </g>
     </g>
    </g>
    <g id="xtick_9">
     <g id="line2d_18">
      <path clip-path="url(#pe0e65c5b02)" d="M 877.847107 500.236364 
L 877.847107 129.6 
" style="fill:none;stroke:#ffffff;stroke-linecap:round;"/>
     </g>
     <g id="text_18">
      <!-- 0.4 -->
      <g style="fill:#262626;" transform="translate(869.100389 518.094645)scale(0.11 -0.11)">
       <use xlink:href="#DejaVuSans-48"/>
       <use x="63.623047" xlink:href="#DejaVuSans-46"/>
       <use x="95.410156" xlink:href="#DejaVuSans-52"/>
      </g>
     </g>
    </g>
    <g id="xtick_10">
     <g id="line2d_19">
      <path clip-path="url(#pe0e65c5b02)" d="M 954.706612 500.236364 
L 954.706612 129.6 
" style="fill:none;stroke:#ffffff;stroke-linecap:round;"/>
     </g>
     <g id="text_19">
      <!-- 0.5 -->
      <g style="fill:#262626;" transform="translate(945.959893 518.094645)scale(0.11 -0.11)">
       <use xlink:href="#DejaVuSans-48"/>
       <use x="63.623047" xlink:href="#DejaVuSans-46"/>
       <use x="95.410156" xlink:href="#DejaVuSans-53"/>
      </g>
     </g>
    </g>
    <g id="text_20">
     <!-- percentage of false labels -->
     <g style="fill:#262626;" transform="translate(704.202102 533.500426)scale(0.12 -0.12)">
      <use xlink:href="#DejaVuSans-112"/>
      <use x="63.476562" xlink:href="#DejaVuSans-101"/>
      <use x="125" xlink:href="#DejaVuSans-114"/>
      <use x="163.863281" xlink:href="#DejaVuSans-99"/>
      <use x="218.84375" xlink:href="#DejaVuSans-101"/>
      <use x="280.367188" xlink:href="#DejaVuSans-110"/>
      <use x="343.746094" xlink:href="#DejaVuSans-116"/>
      <use x="382.955078" xlink:href="#DejaVuSans-97"/>
      <use x="444.234375" xlink:href="#DejaVuSans-103"/>
      <use x="507.710938" xlink:href="#DejaVuSans-101"/>
      <use x="569.234375" xlink:href="#DejaVuSans-32"/>
      <use x="601.021484" xlink:href="#DejaVuSans-111"/>
      <use x="662.203125" xlink:href="#DejaVuSans-102"/>
      <use x="697.408203" xlink:href="#DejaVuSans-32"/>
      <use x="729.195312" xlink:href="#DejaVuSans-102"/>
      <use x="764.400391" xlink:href="#DejaVuSans-97"/>
      <use x="825.679688" xlink:href="#DejaVuSans-108"/>
      <use x="853.462891" xlink:href="#DejaVuSans-115"/>
      <use x="905.5625" xlink:href="#DejaVuSans-101"/>
      <use x="967.085938" xlink:href="#DejaVuSans-32"/>
      <use x="998.873047" xlink:href="#DejaVuSans-108"/>
      <use x="1026.65625" xlink:href="#DejaVuSans-97"/>
      <use x="1087.935547" xlink:href="#DejaVuSans-98"/>
      <use x="1151.412109" xlink:href="#DejaVuSans-101"/>
      <use x="1212.935547" xlink:href="#DejaVuSans-108"/>
      <use x="1240.71875" xlink:href="#DejaVuSans-115"/>
     </g>
    </g>
   </g>
   <g id="matplotlib.axis_4">
    <g id="ytick_7">
     <g id="line2d_20">
      <path clip-path="url(#pe0e65c5b02)" d="M 591.545455 483.389256 
L 972 483.389256 
" style="fill:none;stroke:#ffffff;stroke-linecap:round;"/>
     </g>
     <g id="text_21">
      <!-- 0.0 -->
      <g style="fill:#262626;" transform="translate(564.552017 487.568397)scale(0.11 -0.11)">
       <use xlink:href="#DejaVuSans-48"/>
       <use x="63.623047" xlink:href="#DejaVuSans-46"/>
       <use x="95.410156" xlink:href="#DejaVuSans-48"/>
      </g>
     </g>
    </g>
    <g id="ytick_8">
     <g id="line2d_21">
      <path clip-path="url(#pe0e65c5b02)" d="M 591.545455 416.000826 
L 972 416.000826 
" style="fill:none;stroke:#ffffff;stroke-linecap:round;"/>
     </g>
     <g id="text_22">
      <!-- 0.2 -->
      <g style="fill:#262626;" transform="translate(564.552017 420.179967)scale(0.11 -0.11)">
       <use xlink:href="#DejaVuSans-48"/>
       <use x="63.623047" xlink:href="#DejaVuSans-46"/>
       <use x="95.410156" xlink:href="#DejaVuSans-50"/>
      </g>
     </g>
    </g>
    <g id="ytick_9">
     <g id="line2d_22">
      <path clip-path="url(#pe0e65c5b02)" d="M 591.545455 348.612397 
L 972 348.612397 
" style="fill:none;stroke:#ffffff;stroke-linecap:round;"/>
     </g>
     <g id="text_23">
      <!-- 0.4 -->
      <g style="fill:#262626;" transform="translate(564.552017 352.791537)scale(0.11 -0.11)">
       <use xlink:href="#DejaVuSans-48"/>
       <use x="63.623047" xlink:href="#DejaVuSans-46"/>
       <use x="95.410156" xlink:href="#DejaVuSans-52"/>
      </g>
     </g>
    </g>
    <g id="ytick_10">
     <g id="line2d_23">
      <path clip-path="url(#pe0e65c5b02)" d="M 591.545455 281.223967 
L 972 281.223967 
" style="fill:none;stroke:#ffffff;stroke-linecap:round;"/>
     </g>
     <g id="text_24">
      <!-- 0.6 -->
      <g style="fill:#262626;" transform="translate(564.552017 285.403108)scale(0.11 -0.11)">
       <use xlink:href="#DejaVuSans-48"/>
       <use x="63.623047" xlink:href="#DejaVuSans-46"/>
       <use x="95.410156" xlink:href="#DejaVuSans-54"/>
      </g>
     </g>
    </g>
    <g id="ytick_11">
     <g id="line2d_24">
      <path clip-path="url(#pe0e65c5b02)" d="M 591.545455 213.835537 
L 972 213.835537 
" style="fill:none;stroke:#ffffff;stroke-linecap:round;"/>
     </g>
     <g id="text_25">
      <!-- 0.8 -->
      <g style="fill:#262626;" transform="translate(564.552017 218.014678)scale(0.11 -0.11)">
       <use xlink:href="#DejaVuSans-48"/>
       <use x="63.623047" xlink:href="#DejaVuSans-46"/>
       <use x="95.410156" xlink:href="#DejaVuSans-56"/>
      </g>
     </g>
    </g>
    <g id="ytick_12">
     <g id="line2d_25">
      <path clip-path="url(#pe0e65c5b02)" d="M 591.545455 146.447107 
L 972 146.447107 
" style="fill:none;stroke:#ffffff;stroke-linecap:round;"/>
     </g>
     <g id="text_26">
      <!-- 1.0 -->
      <g style="fill:#262626;" transform="translate(564.552017 150.626248)scale(0.11 -0.11)">
       <use xlink:href="#DejaVuSans-49"/>
       <use x="63.623047" xlink:href="#DejaVuSans-46"/>
       <use x="95.410156" xlink:href="#DejaVuSans-48"/>
      </g>
     </g>
    </g>
    <g id="text_27">
     <!-- correction factor -->
     <g style="fill:#262626;" transform="translate(558.056392 364.550369)rotate(-90)scale(0.12 -0.12)">
      <use xlink:href="#DejaVuSans-99"/>
      <use x="54.980469" xlink:href="#DejaVuSans-111"/>
      <use x="116.162109" xlink:href="#DejaVuSans-114"/>
      <use x="155.525391" xlink:href="#DejaVuSans-114"/>
      <use x="194.388672" xlink:href="#DejaVuSans-101"/>
      <use x="255.912109" xlink:href="#DejaVuSans-99"/>
      <use x="310.892578" xlink:href="#DejaVuSans-116"/>
      <use x="350.101562" xlink:href="#DejaVuSans-105"/>
      <use x="377.884766" xlink:href="#DejaVuSans-111"/>
      <use x="439.066406" xlink:href="#DejaVuSans-110"/>
      <use x="502.445312" xlink:href="#DejaVuSans-32"/>
      <use x="534.232422" xlink:href="#DejaVuSans-102"/>
      <use x="569.4375" xlink:href="#DejaVuSans-97"/>
      <use x="630.716797" xlink:href="#DejaVuSans-99"/>
      <use x="685.697266" xlink:href="#DejaVuSans-116"/>
      <use x="724.90625" xlink:href="#DejaVuSans-111"/>
      <use x="786.087891" xlink:href="#DejaVuSans-114"/>
     </g>
    </g>
   </g>
   <g id="PolyCollection_2">
    <defs>
     <path d="M 608.838843 -810.60607 
L 608.838843 -751.0055 
L 627.04241 -681.795908 
L 645.245977 -743.034094 
L 663.449543 -780.309511 
L 681.65311 -801.003924 
L 699.856677 -817.619596 
L 718.060244 -836.094351 
L 736.26381 -843.616733 
L 754.467377 -849.857775 
L 772.670944 -848.518862 
L 790.874511 -821.172165 
L 809.078077 -818.210774 
L 827.281644 -826.239065 
L 845.485211 -819.955363 
L 863.688778 -813.105303 
L 881.892344 -808.101896 
L 900.095911 -813.352283 
L 918.299478 -751.654919 
L 936.503045 -697.98886 
L 954.706612 -685.873919 
L 954.706612 -841.59418 
L 954.706612 -841.59418 
L 936.503045 -861.637048 
L 918.299478 -883.195859 
L 900.095911 -871.515344 
L 881.892344 -894.93786 
L 863.688778 -895.056738 
L 845.485211 -901.53856 
L 827.281644 -906.443605 
L 809.078077 -907.112801 
L 790.874511 -915.937836 
L 772.670944 -911.034989 
L 754.467377 -912.191176 
L 736.26381 -906.90159 
L 718.060244 -907.065957 
L 699.856677 -905.44342 
L 681.65311 -904.696361 
L 663.449543 -908.656425 
L 645.245977 -902.600528 
L 627.04241 -892.651553 
L 608.838843 -810.60607 
z
" id="m4004d584be" style="stroke:#ffffff;stroke-opacity:0.4;"/>
    </defs>
    <g clip-path="url(#pe0e65c5b02)">
     <use style="fill:#4c72b0;fill-opacity:0.4;stroke:#ffffff;stroke-opacity:0.4;" x="0" xlink:href="#m4004d584be" y="1080"/>
    </g>
   </g>
   <g id="line2d_26">
    <path clip-path="url(#pe0e65c5b02)" d="M 608.838843 299.194215 
L 627.04241 292.776269 
L 645.245977 257.182689 
L 663.449543 235.517032 
L 681.65311 227.149857 
L 699.856677 218.468492 
L 718.060244 208.419846 
L 736.26381 204.740839 
L 754.467377 198.975524 
L 772.670944 200.223074 
L 790.874511 211.445 
L 809.078077 217.338213 
L 827.281644 213.658665 
L 845.485211 219.253038 
L 863.688778 225.91898 
L 881.892344 228.480122 
L 900.095911 237.566187 
L 918.299478 262.574611 
L 936.503045 300.187046 
L 954.706612 316.26595 
" style="fill:none;stroke:#4c72b0;stroke-linecap:round;stroke-width:1.5;"/>
   </g>
   <g id="line2d_27">
    <path clip-path="url(#pe0e65c5b02)" d="M 608.838843 483.389256 
L 627.04241 483.389256 
L 645.245977 483.389256 
L 663.449543 483.389256 
L 681.65311 483.389256 
L 699.856677 483.389256 
L 718.060244 483.389256 
L 736.26381 483.389256 
L 754.467377 483.389256 
L 772.670944 483.389256 
L 790.874511 483.389256 
L 809.078077 483.389256 
L 827.281644 483.389256 
L 845.485211 483.389256 
L 863.688778 483.389256 
L 881.892344 483.389256 
L 900.095911 483.389256 
L 918.299478 483.389256 
L 936.503045 483.389256 
L 954.706612 483.389256 
" style="fill:none;stroke:#dd8452;stroke-linecap:round;stroke-width:1.5;"/>
   </g>
   <g id="line2d_28">
    <path clip-path="url(#pe0e65c5b02)" d="M 608.838843 146.447107 
L 627.04241 146.447107 
L 645.245977 146.447107 
L 663.449543 146.447107 
L 681.65311 146.447107 
L 699.856677 146.447107 
L 718.060244 146.447107 
L 736.26381 146.447107 
L 754.467377 146.447107 
L 772.670944 146.447107 
L 790.874511 146.447107 
L 809.078077 146.447107 
L 827.281644 146.447107 
L 845.485211 146.447107 
L 863.688778 146.447107 
L 881.892344 146.447107 
L 900.095911 146.447107 
L 918.299478 146.447107 
L 936.503045 146.447107 
L 954.706612 146.447107 
" style="fill:none;stroke:#55a868;stroke-linecap:round;stroke-width:1.5;"/>
   </g>
   <g id="patch_8">
    <path d="M 591.545455 500.236364 
L 591.545455 129.6 
" style="fill:none;stroke:#ffffff;stroke-linecap:square;stroke-linejoin:miter;stroke-width:1.25;"/>
   </g>
   <g id="patch_9">
    <path d="M 972 500.236364 
L 972 129.6 
" style="fill:none;stroke:#ffffff;stroke-linecap:square;stroke-linejoin:miter;stroke-width:1.25;"/>
   </g>
   <g id="patch_10">
    <path d="M 591.545455 500.236364 
L 972 500.236364 
" style="fill:none;stroke:#ffffff;stroke-linecap:square;stroke-linejoin:miter;stroke-width:1.25;"/>
   </g>
   <g id="patch_11">
    <path d="M 591.545455 129.6 
L 972 129.6 
" style="fill:none;stroke:#ffffff;stroke-linecap:square;stroke-linejoin:miter;stroke-width:1.25;"/>
   </g>
   <g id="text_28">
    <!-- NNC -->
    <defs>
     <path d="M 9.8125 72.90625 
L 23.09375 72.90625 
L 55.421875 11.921875 
L 55.421875 72.90625 
L 64.984375 72.90625 
L 64.984375 0 
L 51.703125 0 
L 19.390625 60.984375 
L 19.390625 0 
L 9.8125 0 
z
" id="DejaVuSans-78"/>
     <path d="M 64.40625 67.28125 
L 64.40625 56.890625 
Q 59.421875 61.53125 53.78125 63.8125 
Q 48.140625 66.109375 41.796875 66.109375 
Q 29.296875 66.109375 22.65625 58.46875 
Q 16.015625 50.828125 16.015625 36.375 
Q 16.015625 21.96875 22.65625 14.328125 
Q 29.296875 6.6875 41.796875 6.6875 
Q 48.140625 6.6875 53.78125 8.984375 
Q 59.421875 11.28125 64.40625 15.921875 
L 64.40625 5.609375 
Q 59.234375 2.09375 53.4375 0.328125 
Q 47.65625 -1.421875 41.21875 -1.421875 
Q 24.65625 -1.421875 15.125 8.703125 
Q 5.609375 18.84375 5.609375 36.375 
Q 5.609375 53.953125 15.125 64.078125 
Q 24.65625 74.21875 41.21875 74.21875 
Q 47.75 74.21875 53.53125 72.484375 
Q 59.328125 70.75 64.40625 67.28125 
z
" id="DejaVuSans-67"/>
    </defs>
    <g style="fill:#262626;" transform="translate(765.313743 123.6)scale(0.15 -0.15)">
     <use xlink:href="#DejaVuSans-78"/>
     <use x="74.804688" xlink:href="#DejaVuSans-78"/>
     <use x="149.609375" xlink:href="#DejaVuSans-67"/>
    </g>
   </g>
  </g>
  <g id="axes_3">
   <g id="patch_12">
    <path d="M 135 945 
L 515.454545 945 
L 515.454545 574.363636 
L 135 574.363636 
z
" style="fill:#eaeaf2;"/>
   </g>
   <g id="matplotlib.axis_5">
    <g id="xtick_11">
     <g id="line2d_29">
      <path clip-path="url(#p8e5b43172a)" d="M 190.72314 945 
L 190.72314 574.363636 
" style="fill:none;stroke:#ffffff;stroke-linecap:round;"/>
     </g>
     <g id="text_29">
      <!-- 0.1 -->
      <g style="fill:#262626;" transform="translate(181.976422 962.858281)scale(0.11 -0.11)">
       <use xlink:href="#DejaVuSans-48"/>
       <use x="63.623047" xlink:href="#DejaVuSans-46"/>
       <use x="95.410156" xlink:href="#DejaVuSans-49"/>
      </g>
     </g>
    </g>
    <g id="xtick_12">
     <g id="line2d_30">
      <path clip-path="url(#p8e5b43172a)" d="M 267.582645 945 
L 267.582645 574.363636 
" style="fill:none;stroke:#ffffff;stroke-linecap:round;"/>
     </g>
     <g id="text_30">
      <!-- 0.2 -->
      <g style="fill:#262626;" transform="translate(258.835926 962.858281)scale(0.11 -0.11)">
       <use xlink:href="#DejaVuSans-48"/>
       <use x="63.623047" xlink:href="#DejaVuSans-46"/>
       <use x="95.410156" xlink:href="#DejaVuSans-50"/>
      </g>
     </g>
    </g>
    <g id="xtick_13">
     <g id="line2d_31">
      <path clip-path="url(#p8e5b43172a)" d="M 344.442149 945 
L 344.442149 574.363636 
" style="fill:none;stroke:#ffffff;stroke-linecap:round;"/>
     </g>
     <g id="text_31">
      <!-- 0.3 -->
      <g style="fill:#262626;" transform="translate(335.69543 962.858281)scale(0.11 -0.11)">
       <use xlink:href="#DejaVuSans-48"/>
       <use x="63.623047" xlink:href="#DejaVuSans-46"/>
       <use x="95.410156" xlink:href="#DejaVuSans-51"/>
      </g>
     </g>
    </g>
    <g id="xtick_14">
     <g id="line2d_32">
      <path clip-path="url(#p8e5b43172a)" d="M 421.301653 945 
L 421.301653 574.363636 
" style="fill:none;stroke:#ffffff;stroke-linecap:round;"/>
     </g>
     <g id="text_32">
      <!-- 0.4 -->
      <g style="fill:#262626;" transform="translate(412.554934 962.858281)scale(0.11 -0.11)">
       <use xlink:href="#DejaVuSans-48"/>
       <use x="63.623047" xlink:href="#DejaVuSans-46"/>
       <use x="95.410156" xlink:href="#DejaVuSans-52"/>
      </g>
     </g>
    </g>
    <g id="xtick_15">
     <g id="line2d_33">
      <path clip-path="url(#p8e5b43172a)" d="M 498.161157 945 
L 498.161157 574.363636 
" style="fill:none;stroke:#ffffff;stroke-linecap:round;"/>
     </g>
     <g id="text_33">
      <!-- 0.5 -->
      <g style="fill:#262626;" transform="translate(489.414438 962.858281)scale(0.11 -0.11)">
       <use xlink:href="#DejaVuSans-48"/>
       <use x="63.623047" xlink:href="#DejaVuSans-46"/>
       <use x="95.410156" xlink:href="#DejaVuSans-53"/>
      </g>
     </g>
    </g>
    <g id="text_34">
     <!-- percentage of false labels -->
     <g style="fill:#262626;" transform="translate(247.656648 978.264062)scale(0.12 -0.12)">
      <use xlink:href="#DejaVuSans-112"/>
      <use x="63.476562" xlink:href="#DejaVuSans-101"/>
      <use x="125" xlink:href="#DejaVuSans-114"/>
      <use x="163.863281" xlink:href="#DejaVuSans-99"/>
      <use x="218.84375" xlink:href="#DejaVuSans-101"/>
      <use x="280.367188" xlink:href="#DejaVuSans-110"/>
      <use x="343.746094" xlink:href="#DejaVuSans-116"/>
      <use x="382.955078" xlink:href="#DejaVuSans-97"/>
      <use x="444.234375" xlink:href="#DejaVuSans-103"/>
      <use x="507.710938" xlink:href="#DejaVuSans-101"/>
      <use x="569.234375" xlink:href="#DejaVuSans-32"/>
      <use x="601.021484" xlink:href="#DejaVuSans-111"/>
      <use x="662.203125" xlink:href="#DejaVuSans-102"/>
      <use x="697.408203" xlink:href="#DejaVuSans-32"/>
      <use x="729.195312" xlink:href="#DejaVuSans-102"/>
      <use x="764.400391" xlink:href="#DejaVuSans-97"/>
      <use x="825.679688" xlink:href="#DejaVuSans-108"/>
      <use x="853.462891" xlink:href="#DejaVuSans-115"/>
      <use x="905.5625" xlink:href="#DejaVuSans-101"/>
      <use x="967.085938" xlink:href="#DejaVuSans-32"/>
      <use x="998.873047" xlink:href="#DejaVuSans-108"/>
      <use x="1026.65625" xlink:href="#DejaVuSans-97"/>
      <use x="1087.935547" xlink:href="#DejaVuSans-98"/>
      <use x="1151.412109" xlink:href="#DejaVuSans-101"/>
      <use x="1212.935547" xlink:href="#DejaVuSans-108"/>
      <use x="1240.71875" xlink:href="#DejaVuSans-115"/>
     </g>
    </g>
   </g>
   <g id="matplotlib.axis_6">
    <g id="ytick_13">
     <g id="line2d_34">
      <path clip-path="url(#p8e5b43172a)" d="M 135 928.045019 
L 515.454545 928.045019 
" style="fill:none;stroke:#ffffff;stroke-linecap:round;"/>
     </g>
     <g id="text_35">
      <!-- −1.0 -->
      <defs>
       <path d="M 10.59375 35.5 
L 73.1875 35.5 
L 73.1875 27.203125 
L 10.59375 27.203125 
z
" id="DejaVuSans-8722"/>
      </defs>
      <g style="fill:#262626;" transform="translate(98.788906 932.22416)scale(0.11 -0.11)">
       <use xlink:href="#DejaVuSans-8722"/>
       <use x="83.789062" xlink:href="#DejaVuSans-49"/>
       <use x="147.412109" xlink:href="#DejaVuSans-46"/>
       <use x="179.199219" xlink:href="#DejaVuSans-48"/>
      </g>
     </g>
    </g>
    <g id="ytick_14">
     <g id="line2d_35">
      <path clip-path="url(#p8e5b43172a)" d="M 135 848.125778 
L 515.454545 848.125778 
" style="fill:none;stroke:#ffffff;stroke-linecap:round;"/>
     </g>
     <g id="text_36">
      <!-- −0.5 -->
      <g style="fill:#262626;" transform="translate(98.788906 852.304919)scale(0.11 -0.11)">
       <use xlink:href="#DejaVuSans-8722"/>
       <use x="83.789062" xlink:href="#DejaVuSans-48"/>
       <use x="147.412109" xlink:href="#DejaVuSans-46"/>
       <use x="179.199219" xlink:href="#DejaVuSans-53"/>
      </g>
     </g>
    </g>
    <g id="ytick_15">
     <g id="line2d_36">
      <path clip-path="url(#p8e5b43172a)" d="M 135 768.206537 
L 515.454545 768.206537 
" style="fill:none;stroke:#ffffff;stroke-linecap:round;"/>
     </g>
     <g id="text_37">
      <!-- 0.0 -->
      <g style="fill:#262626;" transform="translate(108.006563 772.385678)scale(0.11 -0.11)">
       <use xlink:href="#DejaVuSans-48"/>
       <use x="63.623047" xlink:href="#DejaVuSans-46"/>
       <use x="95.410156" xlink:href="#DejaVuSans-48"/>
      </g>
     </g>
    </g>
    <g id="ytick_16">
     <g id="line2d_37">
      <path clip-path="url(#p8e5b43172a)" d="M 135 688.287296 
L 515.454545 688.287296 
" style="fill:none;stroke:#ffffff;stroke-linecap:round;"/>
     </g>
     <g id="text_38">
      <!-- 0.5 -->
      <g style="fill:#262626;" transform="translate(108.006563 692.466437)scale(0.11 -0.11)">
       <use xlink:href="#DejaVuSans-48"/>
       <use x="63.623047" xlink:href="#DejaVuSans-46"/>
       <use x="95.410156" xlink:href="#DejaVuSans-53"/>
      </g>
     </g>
    </g>
    <g id="ytick_17">
     <g id="line2d_38">
      <path clip-path="url(#p8e5b43172a)" d="M 135 608.368055 
L 515.454545 608.368055 
" style="fill:none;stroke:#ffffff;stroke-linecap:round;"/>
     </g>
     <g id="text_39">
      <!-- 1.0 -->
      <g style="fill:#262626;" transform="translate(108.006563 612.547196)scale(0.11 -0.11)">
       <use xlink:href="#DejaVuSans-49"/>
       <use x="63.623047" xlink:href="#DejaVuSans-46"/>
       <use x="95.410156" xlink:href="#DejaVuSans-48"/>
      </g>
     </g>
    </g>
    <g id="text_40">
     <!-- correction factor -->
     <g style="fill:#262626;" transform="translate(92.293281 809.314006)rotate(-90)scale(0.12 -0.12)">
      <use xlink:href="#DejaVuSans-99"/>
      <use x="54.980469" xlink:href="#DejaVuSans-111"/>
      <use x="116.162109" xlink:href="#DejaVuSans-114"/>
      <use x="155.525391" xlink:href="#DejaVuSans-114"/>
      <use x="194.388672" xlink:href="#DejaVuSans-101"/>
      <use x="255.912109" xlink:href="#DejaVuSans-99"/>
      <use x="310.892578" xlink:href="#DejaVuSans-116"/>
      <use x="350.101562" xlink:href="#DejaVuSans-105"/>
      <use x="377.884766" xlink:href="#DejaVuSans-111"/>
      <use x="439.066406" xlink:href="#DejaVuSans-110"/>
      <use x="502.445312" xlink:href="#DejaVuSans-32"/>
      <use x="534.232422" xlink:href="#DejaVuSans-102"/>
      <use x="569.4375" xlink:href="#DejaVuSans-97"/>
      <use x="630.716797" xlink:href="#DejaVuSans-99"/>
      <use x="685.697266" xlink:href="#DejaVuSans-116"/>
      <use x="724.90625" xlink:href="#DejaVuSans-111"/>
      <use x="786.087891" xlink:href="#DejaVuSans-114"/>
     </g>
    </g>
   </g>
   <g id="PolyCollection_3">
    <defs>
     <path d="M 152.293388 -488.789256 
L 152.293388 -151.847107 
L 170.496955 -229.621305 
L 188.700522 -275.466492 
L 206.904089 -313.135798 
L 225.107656 -362.802215 
L 243.311222 -364.217094 
L 261.514789 -371.823438 
L 279.718356 -367.6041 
L 297.921923 -372.5147 
L 316.125489 -407.958104 
L 334.329056 -408.814472 
L 352.532623 -408.739549 
L 370.73619 -408.792453 
L 388.939756 -410.55708 
L 407.143323 -405.397494 
L 425.34689 -402.135788 
L 443.550457 -400.57149 
L 461.754023 -401.67499 
L 479.95759 -343.116927 
L 498.161157 -335.389731 
L 498.161157 -418.19916 
L 498.161157 -418.19916 
L 479.95759 -431.018421 
L 461.754023 -418.228285 
L 443.550457 -420.469894 
L 425.34689 -422.806108 
L 407.143323 -425.604664 
L 388.939756 -426.711958 
L 370.73619 -426.704221 
L 352.532623 -427.459648 
L 334.329056 -428.203263 
L 316.125489 -429.215658 
L 297.921923 -441.707426 
L 279.718356 -442.331105 
L 261.514789 -440.533465 
L 243.311222 -442.384894 
L 225.107656 -444.996139 
L 206.904089 -443.510873 
L 188.700522 -448.919477 
L 170.496955 -459.118831 
L 152.293388 -488.789256 
z
" id="mea384bf4e1" style="stroke:#ffffff;stroke-opacity:0.4;"/>
    </defs>
    <g clip-path="url(#p8e5b43172a)">
     <use style="fill:#4c72b0;fill-opacity:0.4;stroke:#ffffff;stroke-opacity:0.4;" x="0" xlink:href="#mea384bf4e1" y="1080"/>
    </g>
   </g>
   <g id="line2d_39">
    <path clip-path="url(#p8e5b43172a)" d="M 152.293388 759.681818 
L 170.496955 735.629932 
L 188.700522 717.807016 
L 206.904089 701.676665 
L 225.107656 676.100823 
L 243.311222 676.699006 
L 261.514789 673.821549 
L 279.718356 675.032398 
L 297.921923 672.888937 
L 316.125489 661.413119 
L 334.329056 661.491132 
L 352.532623 661.900401 
L 370.73619 662.251663 
L 388.939756 661.365481 
L 407.143323 664.498921 
L 425.34689 667.529052 
L 443.550457 669.479308 
L 461.754023 670.048362 
L 479.95759 692.932326 
L 498.161157 703.205555 
" style="fill:none;stroke:#4c72b0;stroke-linecap:round;stroke-width:1.5;"/>
   </g>
   <g id="line2d_40">
    <path clip-path="url(#p8e5b43172a)" d="M 152.293388 768.206537 
L 170.496955 768.206537 
L 188.700522 768.206537 
L 206.904089 768.206537 
L 225.107656 768.206537 
L 243.311222 768.206537 
L 261.514789 768.206537 
L 279.718356 768.206537 
L 297.921923 768.206537 
L 316.125489 768.206537 
L 334.329056 768.206537 
L 352.532623 768.206537 
L 370.73619 768.206537 
L 388.939756 768.206537 
L 407.143323 768.206537 
L 425.34689 768.206537 
L 443.550457 768.206537 
L 461.754023 768.206537 
L 479.95759 768.206537 
L 498.161157 768.206537 
" style="fill:none;stroke:#dd8452;stroke-linecap:round;stroke-width:1.5;"/>
   </g>
   <g id="line2d_41">
    <path clip-path="url(#p8e5b43172a)" d="M 152.293388 608.368055 
L 170.496955 608.368055 
L 188.700522 608.368055 
L 206.904089 608.368055 
L 225.107656 608.368055 
L 243.311222 608.368055 
L 261.514789 608.368055 
L 279.718356 608.368055 
L 297.921923 608.368055 
L 316.125489 608.368055 
L 334.329056 608.368055 
L 352.532623 608.368055 
L 370.73619 608.368055 
L 388.939756 608.368055 
L 407.143323 608.368055 
L 425.34689 608.368055 
L 443.550457 608.368055 
L 461.754023 608.368055 
L 479.95759 608.368055 
L 498.161157 608.368055 
" style="fill:none;stroke:#55a868;stroke-linecap:round;stroke-width:1.5;"/>
   </g>
   <g id="patch_13">
    <path d="M 135 945 
L 135 574.363636 
" style="fill:none;stroke:#ffffff;stroke-linecap:square;stroke-linejoin:miter;stroke-width:1.25;"/>
   </g>
   <g id="patch_14">
    <path d="M 515.454545 945 
L 515.454545 574.363636 
" style="fill:none;stroke:#ffffff;stroke-linecap:square;stroke-linejoin:miter;stroke-width:1.25;"/>
   </g>
   <g id="patch_15">
    <path d="M 135 945 
L 515.454545 945 
" style="fill:none;stroke:#ffffff;stroke-linecap:square;stroke-linejoin:miter;stroke-width:1.25;"/>
   </g>
   <g id="patch_16">
    <path d="M 135 574.363636 
L 515.454545 574.363636 
" style="fill:none;stroke:#ffffff;stroke-linecap:square;stroke-linejoin:miter;stroke-width:1.25;"/>
   </g>
   <g id="text_41">
    <!-- BCC -->
    <defs>
     <path d="M 19.671875 34.8125 
L 19.671875 8.109375 
L 35.5 8.109375 
Q 43.453125 8.109375 47.28125 11.40625 
Q 51.125 14.703125 51.125 21.484375 
Q 51.125 28.328125 47.28125 31.5625 
Q 43.453125 34.8125 35.5 34.8125 
z
M 19.671875 64.796875 
L 19.671875 42.828125 
L 34.28125 42.828125 
Q 41.5 42.828125 45.03125 45.53125 
Q 48.578125 48.25 48.578125 53.8125 
Q 48.578125 59.328125 45.03125 62.0625 
Q 41.5 64.796875 34.28125 64.796875 
z
M 9.8125 72.90625 
L 35.015625 72.90625 
Q 46.296875 72.90625 52.390625 68.21875 
Q 58.5 63.53125 58.5 54.890625 
Q 58.5 48.1875 55.375 44.234375 
Q 52.25 40.28125 46.1875 39.3125 
Q 53.46875 37.75 57.5 32.78125 
Q 61.53125 27.828125 61.53125 20.40625 
Q 61.53125 10.640625 54.890625 5.3125 
Q 48.25 0 35.984375 0 
L 9.8125 0 
z
" id="DejaVuSans-66"/>
    </defs>
    <g style="fill:#262626;" transform="translate(309.738601 568.363636)scale(0.15 -0.15)">
     <use xlink:href="#DejaVuSans-66"/>
     <use x="66.853516" xlink:href="#DejaVuSans-67"/>
     <use x="136.677734" xlink:href="#DejaVuSans-67"/>
    </g>
   </g>
  </g>
  <g id="axes_4">
   <g id="patch_17">
    <path d="M 591.545455 945 
L 972 945 
L 972 574.363636 
L 591.545455 574.363636 
z
" style="fill:#eaeaf2;"/>
   </g>
   <g id="matplotlib.axis_7">
    <g id="xtick_16">
     <g id="line2d_42">
      <path clip-path="url(#pe29814ca77)" d="M 647.268595 945 
L 647.268595 574.363636 
" style="fill:none;stroke:#ffffff;stroke-linecap:round;"/>
     </g>
     <g id="text_42">
      <!-- 0.1 -->
      <g style="fill:#262626;" transform="translate(638.521876 962.858281)scale(0.11 -0.11)">
       <use xlink:href="#DejaVuSans-48"/>
       <use x="63.623047" xlink:href="#DejaVuSans-46"/>
       <use x="95.410156" xlink:href="#DejaVuSans-49"/>
      </g>
     </g>
    </g>
    <g id="xtick_17">
     <g id="line2d_43">
      <path clip-path="url(#pe29814ca77)" d="M 724.128099 945 
L 724.128099 574.363636 
" style="fill:none;stroke:#ffffff;stroke-linecap:round;"/>
     </g>
     <g id="text_43">
      <!-- 0.2 -->
      <g style="fill:#262626;" transform="translate(715.38138 962.858281)scale(0.11 -0.11)">
       <use xlink:href="#DejaVuSans-48"/>
       <use x="63.623047" xlink:href="#DejaVuSans-46"/>
       <use x="95.410156" xlink:href="#DejaVuSans-50"/>
      </g>
     </g>
    </g>
    <g id="xtick_18">
     <g id="line2d_44">
      <path clip-path="url(#pe29814ca77)" d="M 800.987603 945 
L 800.987603 574.363636 
" style="fill:none;stroke:#ffffff;stroke-linecap:round;"/>
     </g>
     <g id="text_44">
      <!-- 0.3 -->
      <g style="fill:#262626;" transform="translate(792.240885 962.858281)scale(0.11 -0.11)">
       <use xlink:href="#DejaVuSans-48"/>
       <use x="63.623047" xlink:href="#DejaVuSans-46"/>
       <use x="95.410156" xlink:href="#DejaVuSans-51"/>
      </g>
     </g>
    </g>
    <g id="xtick_19">
     <g id="line2d_45">
      <path clip-path="url(#pe29814ca77)" d="M 877.847107 945 
L 877.847107 574.363636 
" style="fill:none;stroke:#ffffff;stroke-linecap:round;"/>
     </g>
     <g id="text_45">
      <!-- 0.4 -->
      <g style="fill:#262626;" transform="translate(869.100389 962.858281)scale(0.11 -0.11)">
       <use xlink:href="#DejaVuSans-48"/>
       <use x="63.623047" xlink:href="#DejaVuSans-46"/>
       <use x="95.410156" xlink:href="#DejaVuSans-52"/>
      </g>
     </g>
    </g>
    <g id="xtick_20">
     <g id="line2d_46">
      <path clip-path="url(#pe29814ca77)" d="M 954.706612 945 
L 954.706612 574.363636 
" style="fill:none;stroke:#ffffff;stroke-linecap:round;"/>
     </g>
     <g id="text_46">
      <!-- 0.5 -->
      <g style="fill:#262626;" transform="translate(945.959893 962.858281)scale(0.11 -0.11)">
       <use xlink:href="#DejaVuSans-48"/>
       <use x="63.623047" xlink:href="#DejaVuSans-46"/>
       <use x="95.410156" xlink:href="#DejaVuSans-53"/>
      </g>
     </g>
    </g>
    <g id="text_47">
     <!-- percentage of false labels -->
     <g style="fill:#262626;" transform="translate(704.202102 978.264062)scale(0.12 -0.12)">
      <use xlink:href="#DejaVuSans-112"/>
      <use x="63.476562" xlink:href="#DejaVuSans-101"/>
      <use x="125" xlink:href="#DejaVuSans-114"/>
      <use x="163.863281" xlink:href="#DejaVuSans-99"/>
      <use x="218.84375" xlink:href="#DejaVuSans-101"/>
      <use x="280.367188" xlink:href="#DejaVuSans-110"/>
      <use x="343.746094" xlink:href="#DejaVuSans-116"/>
      <use x="382.955078" xlink:href="#DejaVuSans-97"/>
      <use x="444.234375" xlink:href="#DejaVuSans-103"/>
      <use x="507.710938" xlink:href="#DejaVuSans-101"/>
      <use x="569.234375" xlink:href="#DejaVuSans-32"/>
      <use x="601.021484" xlink:href="#DejaVuSans-111"/>
      <use x="662.203125" xlink:href="#DejaVuSans-102"/>
      <use x="697.408203" xlink:href="#DejaVuSans-32"/>
      <use x="729.195312" xlink:href="#DejaVuSans-102"/>
      <use x="764.400391" xlink:href="#DejaVuSans-97"/>
      <use x="825.679688" xlink:href="#DejaVuSans-108"/>
      <use x="853.462891" xlink:href="#DejaVuSans-115"/>
      <use x="905.5625" xlink:href="#DejaVuSans-101"/>
      <use x="967.085938" xlink:href="#DejaVuSans-32"/>
      <use x="998.873047" xlink:href="#DejaVuSans-108"/>
      <use x="1026.65625" xlink:href="#DejaVuSans-97"/>
      <use x="1087.935547" xlink:href="#DejaVuSans-98"/>
      <use x="1151.412109" xlink:href="#DejaVuSans-101"/>
      <use x="1212.935547" xlink:href="#DejaVuSans-108"/>
      <use x="1240.71875" xlink:href="#DejaVuSans-115"/>
     </g>
    </g>
   </g>
   <g id="matplotlib.axis_8">
    <g id="ytick_18">
     <g id="line2d_47">
      <path clip-path="url(#pe29814ca77)" d="M 591.545455 928.152893 
L 972 928.152893 
" style="fill:none;stroke:#ffffff;stroke-linecap:round;"/>
     </g>
     <g id="text_48">
      <!-- 0.0 -->
      <g style="fill:#262626;" transform="translate(564.552017 932.332033)scale(0.11 -0.11)">
       <use xlink:href="#DejaVuSans-48"/>
       <use x="63.623047" xlink:href="#DejaVuSans-46"/>
       <use x="95.410156" xlink:href="#DejaVuSans-48"/>
      </g>
     </g>
    </g>
    <g id="ytick_19">
     <g id="line2d_48">
      <path clip-path="url(#pe29814ca77)" d="M 591.545455 860.764463 
L 972 860.764463 
" style="fill:none;stroke:#ffffff;stroke-linecap:round;"/>
     </g>
     <g id="text_49">
      <!-- 0.2 -->
      <g style="fill:#262626;" transform="translate(564.552017 864.943603)scale(0.11 -0.11)">
       <use xlink:href="#DejaVuSans-48"/>
       <use x="63.623047" xlink:href="#DejaVuSans-46"/>
       <use x="95.410156" xlink:href="#DejaVuSans-50"/>
      </g>
     </g>
    </g>
    <g id="ytick_20">
     <g id="line2d_49">
      <path clip-path="url(#pe29814ca77)" d="M 591.545455 793.376033 
L 972 793.376033 
" style="fill:none;stroke:#ffffff;stroke-linecap:round;"/>
     </g>
     <g id="text_50">
      <!-- 0.4 -->
      <g style="fill:#262626;" transform="translate(564.552017 797.555174)scale(0.11 -0.11)">
       <use xlink:href="#DejaVuSans-48"/>
       <use x="63.623047" xlink:href="#DejaVuSans-46"/>
       <use x="95.410156" xlink:href="#DejaVuSans-52"/>
      </g>
     </g>
    </g>
    <g id="ytick_21">
     <g id="line2d_50">
      <path clip-path="url(#pe29814ca77)" d="M 591.545455 725.987603 
L 972 725.987603 
" style="fill:none;stroke:#ffffff;stroke-linecap:round;"/>
     </g>
     <g id="text_51">
      <!-- 0.6 -->
      <g style="fill:#262626;" transform="translate(564.552017 730.166744)scale(0.11 -0.11)">
       <use xlink:href="#DejaVuSans-48"/>
       <use x="63.623047" xlink:href="#DejaVuSans-46"/>
       <use x="95.410156" xlink:href="#DejaVuSans-54"/>
      </g>
     </g>
    </g>
    <g id="ytick_22">
     <g id="line2d_51">
      <path clip-path="url(#pe29814ca77)" d="M 591.545455 658.599174 
L 972 658.599174 
" style="fill:none;stroke:#ffffff;stroke-linecap:round;"/>
     </g>
     <g id="text_52">
      <!-- 0.8 -->
      <g style="fill:#262626;" transform="translate(564.552017 662.778314)scale(0.11 -0.11)">
       <use xlink:href="#DejaVuSans-48"/>
       <use x="63.623047" xlink:href="#DejaVuSans-46"/>
       <use x="95.410156" xlink:href="#DejaVuSans-56"/>
      </g>
     </g>
    </g>
    <g id="ytick_23">
     <g id="line2d_52">
      <path clip-path="url(#pe29814ca77)" d="M 591.545455 591.210744 
L 972 591.210744 
" style="fill:none;stroke:#ffffff;stroke-linecap:round;"/>
     </g>
     <g id="text_53">
      <!-- 1.0 -->
      <g style="fill:#262626;" transform="translate(564.552017 595.389884)scale(0.11 -0.11)">
       <use xlink:href="#DejaVuSans-49"/>
       <use x="63.623047" xlink:href="#DejaVuSans-46"/>
       <use x="95.410156" xlink:href="#DejaVuSans-48"/>
      </g>
     </g>
    </g>
    <g id="text_54">
     <!-- correction factor -->
     <g style="fill:#262626;" transform="translate(558.056392 809.314006)rotate(-90)scale(0.12 -0.12)">
      <use xlink:href="#DejaVuSans-99"/>
      <use x="54.980469" xlink:href="#DejaVuSans-111"/>
      <use x="116.162109" xlink:href="#DejaVuSans-114"/>
      <use x="155.525391" xlink:href="#DejaVuSans-114"/>
      <use x="194.388672" xlink:href="#DejaVuSans-101"/>
      <use x="255.912109" xlink:href="#DejaVuSans-99"/>
      <use x="310.892578" xlink:href="#DejaVuSans-116"/>
      <use x="350.101562" xlink:href="#DejaVuSans-105"/>
      <use x="377.884766" xlink:href="#DejaVuSans-111"/>
      <use x="439.066406" xlink:href="#DejaVuSans-110"/>
      <use x="502.445312" xlink:href="#DejaVuSans-32"/>
      <use x="534.232422" xlink:href="#DejaVuSans-102"/>
      <use x="569.4375" xlink:href="#DejaVuSans-97"/>
      <use x="630.716797" xlink:href="#DejaVuSans-99"/>
      <use x="685.697266" xlink:href="#DejaVuSans-116"/>
      <use x="724.90625" xlink:href="#DejaVuSans-111"/>
      <use x="786.087891" xlink:href="#DejaVuSans-114"/>
     </g>
    </g>
   </g>
   <g id="PolyCollection_4">
    <defs>
     <path d="M 608.838843 -327.057025 
L 608.838843 -300.101653 
L 627.04241 -326.714005 
L 645.245977 -382.667657 
L 663.449543 -406.265719 
L 681.65311 -408.400069 
L 699.856677 -429.475464 
L 718.060244 -427.985815 
L 736.26381 -442.987039 
L 754.467377 -442.448758 
L 772.670944 -434.046392 
L 790.874511 -434.633095 
L 809.078077 -434.478869 
L 827.281644 -432.275635 
L 845.485211 -435.757104 
L 863.688778 -428.109226 
L 881.892344 -414.788128 
L 900.095911 -403.353679 
L 918.299478 -395.886493 
L 936.503045 -382.787806 
L 954.706612 -357.098145 
L 954.706612 -408.431441 
L 954.706612 -408.431441 
L 936.503045 -434.448439 
L 918.299478 -447.698746 
L 900.095911 -456.922111 
L 881.892344 -459.694839 
L 863.688778 -465.87665 
L 845.485211 -466.504928 
L 827.281644 -464.649008 
L 809.078077 -462.081238 
L 790.874511 -459.936061 
L 772.670944 -459.880616 
L 754.467377 -454.461114 
L 736.26381 -449.232796 
L 718.060244 -449.03316 
L 699.856677 -441.404702 
L 681.65311 -438.812463 
L 663.449543 -422.862919 
L 645.245977 -401.123587 
L 627.04241 -382.594377 
L 608.838843 -327.057025 
z
" id="m60c268c84b" style="stroke:#ffffff;stroke-opacity:0.4;"/>
    </defs>
    <g clip-path="url(#pe29814ca77)">
     <use style="fill:#4c72b0;fill-opacity:0.4;stroke:#ffffff;stroke-opacity:0.4;" x="0" xlink:href="#m60c268c84b" y="1080"/>
    </g>
   </g>
   <g id="line2d_53">
    <path clip-path="url(#pe29814ca77)" d="M 608.838843 766.420661 
L 627.04241 725.345809 
L 645.245977 688.104378 
L 663.449543 665.435681 
L 681.65311 656.393734 
L 699.856677 644.559917 
L 718.060244 641.490513 
L 736.26381 633.890083 
L 754.467377 631.545064 
L 772.670944 633.036496 
L 790.874511 632.715422 
L 809.078077 631.719947 
L 827.281644 631.537678 
L 845.485211 628.868984 
L 863.688778 633.007062 
L 881.892344 642.758517 
L 900.095911 649.862105 
L 918.299478 658.20738 
L 936.503045 671.381878 
L 954.706612 697.235207 
" style="fill:none;stroke:#4c72b0;stroke-linecap:round;stroke-width:1.5;"/>
   </g>
   <g id="line2d_54">
    <path clip-path="url(#pe29814ca77)" d="M 608.838843 928.152893 
L 627.04241 928.152893 
L 645.245977 928.152893 
L 663.449543 928.152893 
L 681.65311 928.152893 
L 699.856677 928.152893 
L 718.060244 928.152893 
L 736.26381 928.152893 
L 754.467377 928.152893 
L 772.670944 928.152893 
L 790.874511 928.152893 
L 809.078077 928.152893 
L 827.281644 928.152893 
L 845.485211 928.152893 
L 863.688778 928.152893 
L 881.892344 928.152893 
L 900.095911 928.152893 
L 918.299478 928.152893 
L 936.503045 928.152893 
L 954.706612 928.152893 
" style="fill:none;stroke:#dd8452;stroke-linecap:round;stroke-width:1.5;"/>
   </g>
   <g id="line2d_55">
    <path clip-path="url(#pe29814ca77)" d="M 608.838843 591.210744 
L 627.04241 591.210744 
L 645.245977 591.210744 
L 663.449543 591.210744 
L 681.65311 591.210744 
L 699.856677 591.210744 
L 718.060244 591.210744 
L 736.26381 591.210744 
L 754.467377 591.210744 
L 772.670944 591.210744 
L 790.874511 591.210744 
L 809.078077 591.210744 
L 827.281644 591.210744 
L 845.485211 591.210744 
L 863.688778 591.210744 
L 881.892344 591.210744 
L 900.095911 591.210744 
L 918.299478 591.210744 
L 936.503045 591.210744 
L 954.706612 591.210744 
" style="fill:none;stroke:#55a868;stroke-linecap:round;stroke-width:1.5;"/>
   </g>
   <g id="patch_18">
    <path d="M 591.545455 945 
L 591.545455 574.363636 
" style="fill:none;stroke:#ffffff;stroke-linecap:square;stroke-linejoin:miter;stroke-width:1.25;"/>
   </g>
   <g id="patch_19">
    <path d="M 972 945 
L 972 574.363636 
" style="fill:none;stroke:#ffffff;stroke-linecap:square;stroke-linejoin:miter;stroke-width:1.25;"/>
   </g>
   <g id="patch_20">
    <path d="M 591.545455 945 
L 972 945 
" style="fill:none;stroke:#ffffff;stroke-linecap:square;stroke-linejoin:miter;stroke-width:1.25;"/>
   </g>
   <g id="patch_21">
    <path d="M 591.545455 574.363636 
L 972 574.363636 
" style="fill:none;stroke:#ffffff;stroke-linecap:square;stroke-linejoin:miter;stroke-width:1.25;"/>
   </g>
   <g id="text_55">
    <!-- CC -->
    <g style="fill:#262626;" transform="translate(771.298509 568.363636)scale(0.15 -0.15)">
     <use xlink:href="#DejaVuSans-67"/>
     <use x="69.824219" xlink:href="#DejaVuSans-67"/>
    </g>
   </g>
  </g>
 </g>
 <defs>
  <clipPath id="pb27b7a2703">
   <rect height="370.636364" width="380.454545" x="135" y="129.6"/>
  </clipPath>
  <clipPath id="pe0e65c5b02">
   <rect height="370.636364" width="380.454545" x="591.545455" y="129.6"/>
  </clipPath>
  <clipPath id="p8e5b43172a">
   <rect height="370.636364" width="380.454545" x="135" y="574.363636"/>
  </clipPath>
  <clipPath id="pe29814ca77">
   <rect height="370.636364" width="380.454545" x="591.545455" y="574.363636"/>
  </clipPath>
 </defs>
</svg>
